<svg width="92" height="65" viewBox="0 0 92 65" fill="none" xmlns="http://www.w3.org/2000/svg">
<path d="M42.7071 0.316901C41.0582 0.729125 39.0688 1.67903 37.6708 2.73648C34.0863 5.44282 32.0072 10.3716 32.5808 14.7448C33.0467 18.1501 34.0863 20.3008 36.47 22.6846L38.101 24.3334L36.8105 24.9607C30.7885 27.8105 26.3078 33.7071 25.1607 40.2847C24.7664 42.5072 24.7664 56.2539 25.1607 57.7774C26.0031 61.0214 28.7274 63.7457 31.9714 64.588C33.5486 65.0003 58.1745 65.0003 59.7517 64.588C62.9957 63.7457 65.72 61.0214 66.5624 57.7774C66.9567 56.2539 66.9567 42.5072 66.5624 40.2847C65.4153 33.725 60.9346 27.8105 54.9663 24.9787L53.6221 24.3334L55.2531 22.6846C57.9774 19.9424 59.1603 17.1464 59.1782 13.3289C59.1961 8.09539 56.4002 3.59677 51.6865 1.32058C50.8082 0.89043 49.4999 0.424438 48.783 0.263133C47.0982 -0.113246 44.3381 -0.0774005 42.7071 0.316901ZM47.9944 4.009C51.095 4.74383 53.7834 7.12756 54.8588 10.1027C55.3248 11.4111 55.4861 13.8486 55.1993 15.2466C54.5183 18.4906 51.9015 21.3941 48.7471 22.3978C47.1161 22.9175 44.607 22.9175 42.976 22.3978C39.8395 21.3941 37.2048 18.4727 36.5238 15.2466C36.237 13.8486 36.3983 11.4111 36.8643 10.1027C38.4953 5.5862 43.3703 2.93363 47.9944 4.009ZM50.0017 27.2011C53.2099 28.0255 55.7191 29.4773 58.049 31.861C59.7517 33.5816 60.9705 35.4097 61.7949 37.4529C62.9599 40.3744 62.9778 40.5177 62.9778 49.0848V56.8812L62.4939 57.7953C61.777 59.1574 61.2393 59.713 59.9847 60.3941L58.8556 61.0035H45.8615H32.8675L31.7384 60.3941C30.4838 59.713 29.9461 59.1574 29.2292 57.7953L28.7453 56.8812V49.0848C28.7453 40.5177 28.7632 40.3744 29.9282 37.4529C30.7706 35.356 31.9714 33.5637 33.7457 31.7714C36.5775 28.9575 39.2122 27.6312 43.7108 26.7889C44.7683 26.5917 48.6754 26.8426 50.0017 27.2011Z" fill="white"/>
<path d="M14.4072 5.99844C11.3424 6.73328 8.38509 9.11701 6.98712 11.9847C6.03721 13.9382 5.66083 15.7305 5.76837 17.7199C5.94759 20.6055 7.09465 23.1685 9.08408 25.14L10.1595 26.2154L8.81524 26.9681C4.65715 29.3518 1.68197 33.2232 0.499065 37.8114C0.140609 39.1556 0.0868404 39.9084 0.033072 44.873C-0.0386191 49.5329 -0.00277355 50.6262 0.230223 51.6657C0.965057 54.8381 3.29502 57.4727 6.3419 58.6377C7.36349 59.0141 7.68611 59.032 13.6544 59.0858L19.8915 59.1395L20.5367 58.4943C21.1103 57.9208 21.164 57.7953 21.0744 57.1143C21.0207 56.6483 20.8056 56.2002 20.5188 55.9134L20.0528 55.4474L14.0845 55.3578C8.29548 55.2682 8.11625 55.2503 7.18427 54.8381C6.01929 54.3183 4.62131 52.8307 4.17324 51.6478C3.9044 50.9309 3.85063 50.0527 3.77894 46.3247C3.70724 41.2705 3.86855 39.4961 4.63923 37.435C7.30973 30.1046 15.3571 26.7172 22.7413 29.8178C24.1213 30.3914 24.8382 30.3197 25.5014 29.5311C26.3079 28.5812 26.0032 27.219 24.8382 26.5917L24.193 26.2512L25.4834 24.8891C28.136 22.0752 29.1576 18.4727 28.3869 14.7627C27.5087 10.5867 23.9958 6.96627 19.8736 5.99844C18.4219 5.65791 15.841 5.65791 14.4072 5.99844ZM19.0312 9.7443C20.5367 10.1386 21.4329 10.6584 22.562 11.7875C25.5014 14.7268 25.5731 19.2792 22.7233 22.2903C21.1461 23.9571 19.4076 24.7098 17.1493 24.7098C14.9628 24.7098 13.1346 23.8854 11.5754 22.2186C8.79732 19.2434 8.90486 14.691 11.8083 11.7875C13.7978 9.79807 16.3966 9.06324 19.0312 9.7443Z" fill="white"/>
<path d="M71.76 5.99844C68.6952 6.73328 65.738 9.11701 64.34 11.9847C62.1175 16.537 62.942 21.663 66.4549 25.1579L67.5302 26.2512L66.9029 26.5917C65.72 27.219 65.4153 28.5632 66.2219 29.5311C66.885 30.3197 67.6019 30.3914 68.982 29.8178C70.8459 29.0292 72.6382 28.6529 74.4843 28.6529C76.6888 28.6529 78.3735 29.0472 80.363 29.9971C83.9296 31.7356 86.3312 34.6391 87.4783 38.6C87.8547 39.9442 87.8905 40.3385 87.8905 45.3211C87.8905 49.9989 87.8547 50.7158 87.5679 51.5582C87.1198 52.8128 85.7577 54.2824 84.539 54.8381C83.607 55.2503 83.4277 55.2682 77.6387 55.3578L71.6704 55.4474L71.2044 55.9134C70.9176 56.2002 70.7026 56.6483 70.6488 57.1143C70.5592 57.7953 70.613 57.9208 71.1865 58.4943L71.8317 59.1395L78.0688 59.0858C84.0371 59.032 84.3597 59.0141 85.3813 58.6377C88.3924 57.4906 90.7402 54.8381 91.4751 51.7553C91.8515 50.1244 91.8515 41.3601 91.4751 39.1556C90.561 33.8863 87.3887 29.4056 82.7825 26.8964L81.5638 26.2333L82.8542 24.8711C85.4709 22.0931 86.5105 18.4548 85.7398 14.7627C84.8616 10.5867 81.3487 6.96627 77.2265 5.99844C75.7747 5.65791 73.1938 5.65791 71.76 5.99844ZM76.3841 9.7443C77.8896 10.1386 78.7857 10.6584 79.9149 11.7875C82.8542 14.7268 82.9259 19.2792 80.0762 22.2903C78.499 23.9571 76.7605 24.7098 74.5022 24.7098C72.3156 24.7098 70.4875 23.8854 68.9282 22.2186C66.1502 19.2434 66.2577 14.691 69.1612 11.7875C71.1506 9.79807 73.7494 9.06324 76.3841 9.7443Z" fill="white"/>
</svg>
