<svg width="66" height="65" viewBox="0 0 66 65" fill="none" xmlns="http://www.w3.org/2000/svg">
<path d="M64.315 26.1875L41.7162 3.58873C36.9187 -1.20877 29.2175 -1.20877 24.42 3.58873L1.695 26.1875C0.685 27.1975 0.685 28.8387 1.695 29.975C2.705 30.985 4.34625 30.985 5.4825 29.975L7.12375 28.3337V56.9925C7.12375 61.9162 10.785 64.9462 16.845 64.9462C22.6525 64.9462 26.8187 61.6637 26.8187 56.9925V40.4537C26.8187 38.8125 27.5762 36.035 33.005 36.035C38.4337 36.035 39.1912 38.8125 39.1912 40.4537V56.9925C39.1912 59.0125 39.9487 60.78 41.3375 62.1687C43.105 63.9362 45.8825 64.9462 49.165 64.9462C55.225 64.9462 58.8862 61.9162 58.8862 56.9925V28.3337L60.5275 29.975C61.0325 30.48 61.6637 30.7325 62.4212 30.7325C63.0525 30.7325 63.81 30.48 64.315 29.975C65.325 28.965 65.325 27.3237 64.315 26.1875ZM53.5837 56.9925C53.5837 58.76 52.0687 59.6437 49.165 59.6437C47.3975 59.6437 45.8825 59.1387 45.125 58.3812C44.7462 58.0025 44.62 57.4975 44.62 56.8662V40.4537C44.62 34.52 40.075 30.7325 33.1312 30.7325C26.1875 30.7325 21.6425 34.52 21.6425 40.4537V56.9925C21.6425 59.6437 17.2237 59.6437 16.9712 59.6437C12.5525 59.6437 12.5525 57.75 12.5525 56.9925V23.0312L28.2075 7.37622C29.47 6.11372 31.2375 5.35623 33.1312 5.35623C35.025 5.35623 36.7925 6.11372 38.055 7.37622L53.71 23.0312L53.5837 56.9925Z" fill="white"/>
</svg>
