<svg width="74" height="74" viewBox="0 0 74 74" fill="none" xmlns="http://www.w3.org/2000/svg">
<g clip-path="url(#clip0_1_87)">
<path d="M20.1781 5.13085C20.0169 4.96916 19.8255 4.84086 19.6146 4.75333C19.4038 4.66579 19.1778 4.62073 18.9495 4.62073C18.7213 4.62073 18.4952 4.66579 18.2844 4.75333C18.0736 4.84086 17.8822 4.96916 17.721 5.13085L8.51727 14.2811L5.23641 11.0841C5.07528 10.9224 4.88382 10.7941 4.673 10.7066C4.46219 10.619 4.23616 10.574 4.0079 10.574C3.77963 10.574 3.55361 10.619 3.34279 10.7066C3.13197 10.7941 2.94051 10.9224 2.77938 11.0841L0.51024 13.3561C0.34855 13.5172 0.220258 13.7087 0.13272 13.9195C0.0451828 14.1303 0.00012207 14.3564 0.00012207 14.5846C0.00012207 14.8129 0.0451828 15.0389 0.13272 15.2497C0.220258 15.4606 0.34855 15.652 0.51024 15.8132L7.38848 22.6639C7.73181 22.9903 8.18739 23.1723 8.66108 23.1723C9.13477 23.1723 9.59035 22.9903 9.93368 22.6639L12.1869 20.4064L22.6221 9.97264C22.9472 9.64725 23.1309 9.20678 23.1334 8.7468C23.1358 8.28682 22.9568 7.84443 22.6351 7.51561L20.1781 5.13085ZM20.1781 28.1388C20.0169 27.9771 19.8255 27.8488 19.6146 27.7613C19.4038 27.6737 19.1778 27.6287 18.9495 27.6287C18.7213 27.6287 18.4952 27.6737 18.2844 27.7613C18.0736 27.8488 17.8822 27.9771 17.721 28.1388L8.51727 37.3483L5.23641 34.1542C5.07528 33.9925 4.88382 33.8642 4.673 33.7766C4.46219 33.6891 4.23616 33.644 4.0079 33.644C3.77963 33.644 3.55361 33.6891 3.34279 33.7766C3.13197 33.8642 2.94051 33.9925 2.77938 34.1542L0.51024 36.4219C0.34855 36.583 0.220258 36.7745 0.13272 36.9853C0.0451828 37.1961 0.00012207 37.4221 0.00012207 37.6504C0.00012207 37.8786 0.0451828 38.1047 0.13272 38.3155C0.220258 38.5263 0.34855 38.7178 0.51024 38.8789L7.37114 45.7441C7.71422 46.0704 8.16957 46.2523 8.64301 46.2523C9.11646 46.2523 9.5718 46.0704 9.91489 45.7441L12.184 43.4764L22.6192 33.0384C22.9431 32.7153 23.1262 32.2773 23.1286 31.8198C23.131 31.3623 22.9526 30.9224 22.6322 30.5958L20.1781 28.1388ZM9.25004 53.1875C5.42141 53.1875 2.22727 56.2949 2.22727 60.125C2.22727 63.9551 5.4243 67.0625 9.25004 67.0625C11.09 67.0625 12.8546 66.3316 14.1556 65.0305C15.4566 63.7295 16.1875 61.9649 16.1875 60.125C16.1875 58.285 15.4566 56.5205 14.1556 55.2194C12.8546 53.9184 11.09 53.1875 9.25004 53.1875ZM71.6875 55.5H30.0625C29.4492 55.5 28.861 55.7436 28.4274 56.1773C27.9937 56.611 27.75 57.1992 27.75 57.8125V62.4375C27.75 63.0508 27.9937 63.639 28.4274 64.0727C28.861 64.5063 29.4492 64.75 30.0625 64.75H71.6875C72.3009 64.75 72.8891 64.5063 73.3227 64.0727C73.7564 63.639 74 63.0508 74 62.4375V57.8125C74 57.1992 73.7564 56.611 73.3227 56.1773C72.8891 55.7436 72.3009 55.5 71.6875 55.5ZM71.6875 9.24999H30.0625C29.4492 9.24999 28.861 9.49362 28.4274 9.9273C27.9937 10.361 27.75 10.9492 27.75 11.5625V16.1875C27.75 16.8008 27.9937 17.389 28.4274 17.8227C28.861 18.2563 29.4492 18.5 30.0625 18.5H71.6875C72.3009 18.5 72.8891 18.2563 73.3227 17.8227C73.7564 17.389 74 16.8008 74 16.1875V11.5625C74 10.9492 73.7564 10.361 73.3227 9.9273C72.8891 9.49362 72.3009 9.24999 71.6875 9.24999ZM71.6875 32.375H30.0625C29.4492 32.375 28.861 32.6186 28.4274 33.0523C27.9937 33.486 27.75 34.0742 27.75 34.6875V39.3125C27.75 39.9258 27.9937 40.514 28.4274 40.9477C28.861 41.3814 29.4492 41.625 30.0625 41.625H71.6875C72.3009 41.625 72.8891 41.3814 73.3227 40.9477C73.7564 40.514 74 39.9258 74 39.3125V34.6875C74 34.0742 73.7564 33.486 73.3227 33.0523C72.8891 32.6186 72.3009 32.375 71.6875 32.375Z" fill="white"/>
</g>
<defs>
<clipPath id="clip0_1_87">
<rect width="74" height="74" fill="white"/>
</clipPath>
</defs>
</svg>
