<svg width="79" height="79" viewBox="0 0 79 79" fill="none" xmlns="http://www.w3.org/2000/svg">
<g clip-path="url(#clip0_1_89)">
<path d="M38.1112 0.107978C37.3243 0.231415 35.8585 0.833173 35.1024 1.32692C34.6858 1.60466 29.6095 6.55759 23.8388 12.3437L13.3466 22.8359H10.7235C6.41864 22.8359 4.86024 23.3605 2.70009 25.5361C1.29599 26.9248 0.586222 28.1746 0.231339 29.8873C-0.0926846 31.4302 -0.108114 70.3748 0.215909 71.9177C0.586222 73.6459 1.29599 74.9111 2.70009 76.2998C4.08876 77.6885 5.38485 78.4136 7.08212 78.784C8.60966 79.108 29.594 79.108 30.2266 78.784C30.6587 78.5525 31.0136 77.9662 31.0136 77.4416C31.0136 77.0095 30.6124 76.2844 30.2884 76.1301C30.1341 76.0529 24.9806 75.9603 18.8241 75.914L7.63759 75.8369L6.72724 75.4666C5.47743 74.9574 4.02704 73.5379 3.53329 72.2881L3.16298 71.3623V50.8408V30.3193L3.65673 29.3009C4.25849 28.082 5.36942 26.9865 6.6038 26.4156L7.48329 25.999H36.414H65.3446L66.3784 26.5082C67.6436 27.1254 68.8009 28.3443 69.31 29.5941C69.6495 30.4582 69.6649 30.6125 69.7112 36.522L69.7575 42.5859H63.6011C57.9692 42.5859 57.352 42.6168 56.2565 42.8945C54.729 43.2802 53.5409 43.9592 52.4454 45.0392C51.3653 46.1347 50.6864 47.3228 50.3007 48.8504C49.9149 50.3625 49.9149 51.4734 50.3007 52.9855C51.0722 56.0097 53.4175 58.2933 56.488 59.0185C57.2749 59.2037 58.6636 59.25 63.6165 59.25H69.7575L69.7112 65.2984C69.6649 71.3006 69.6649 71.3777 69.2946 72.2881C68.7854 73.5533 67.3813 74.9574 66.1161 75.4666L65.1903 75.8369L54.0038 75.914C47.8474 75.9603 42.6938 76.0529 42.5395 76.1301C42.2155 76.2844 41.8143 77.0095 41.8143 77.4416C41.8143 77.6113 41.8915 77.9353 41.9995 78.1513C42.3852 79.0154 42.1075 79 53.8804 79C65.8229 79 65.9155 78.9845 67.8597 78.0433C69.2946 77.3644 71.177 75.4666 71.8714 74.0008C72.7509 72.1801 72.828 71.5474 72.828 65.0978V59.2808L74.1858 59.2191C76.3768 59.1111 77.7809 58.247 78.5987 56.4881C78.9073 55.8092 78.9227 55.5314 78.9227 50.9179C78.9227 46.3045 78.9073 46.0267 78.5987 45.3478C77.7809 43.5888 76.3768 42.7248 74.1858 42.6168L72.828 42.5551V36.7381C72.828 32.2943 72.7663 30.6896 72.5966 29.8873C71.9794 26.9711 69.6649 24.348 66.8259 23.3605L65.8229 23.0056L62.1815 16.6949C60.1757 13.2232 58.2933 10.091 58.0001 9.7361C57.3058 8.9029 55.9017 7.93083 54.8061 7.51423C54.0655 7.22106 53.6026 7.17478 51.8128 7.17478H49.6989L46.721 4.2277C43.5425 1.06462 42.9716 0.663446 41.1663 0.231415C40.2559 0.0153996 38.9907 -0.0308895 38.1112 0.107978ZM41.4286 3.59509C41.9378 3.85739 43.0179 4.81403 44.5917 6.38786C45.9032 7.69938 46.937 8.81032 46.9061 8.85661C46.8599 8.88747 41.4132 12.0506 34.7784 15.8771L22.7278 22.8359H20.1974H17.6669L26.8475 13.6398C31.8931 8.59431 36.3368 4.24313 36.7071 3.98083C37.6638 3.31735 38.4815 3.08591 39.6542 3.14763C40.3485 3.17849 40.8886 3.31735 41.4286 3.59509ZM53.7415 10.4304C55.161 10.9088 55.6393 11.5414 59.003 17.3584L62.1198 22.7588L53.9112 22.805C49.3903 22.8205 41.9532 22.8205 37.3706 22.805L29.0386 22.7588L39.4536 16.7412C45.178 13.4238 50.1464 10.6002 50.5013 10.4613C51.3345 10.1218 52.8157 10.1064 53.7415 10.4304ZM75.0653 45.857C75.8522 46.2119 75.914 46.5513 75.914 50.9179C75.914 55.3308 75.8522 55.6549 75.019 55.9943C74.695 56.1332 72.288 56.164 65.7921 56.1332L57.0126 56.0869L56.1485 55.6549C55.1147 55.1611 53.9575 53.973 53.4946 52.9547C52.97 51.8283 53.0163 49.8996 53.5872 48.7269C54.2815 47.3074 55.377 46.3508 56.8583 45.8879C57.7224 45.6101 74.479 45.5793 75.0653 45.857Z" fill="white"/>
<path d="M57.0744 49.807C56.6424 50.1928 56.5498 50.3779 56.5498 50.918C56.5498 51.458 56.6424 51.6432 57.059 52.0135C57.6145 52.5072 58.1236 52.5689 58.7871 52.2295C60.0986 51.5506 59.7129 49.6219 58.2316 49.4213C57.6762 49.3441 57.5219 49.4059 57.0744 49.807Z" fill="#858585"/>
<path d="M35.6579 76.1301C34.3155 76.8707 34.8864 79 36.4139 79C37.2008 79 37.9569 78.2439 37.9569 77.4725C37.9569 76.3152 36.6762 75.5592 35.6579 76.1301Z" fill="#858585"/>
</g>
<defs>
<clipPath id="clip0_1_89">
<rect width="79" height="79" fill="white"/>
</clipPath>
</defs>
</svg>
